<svg xmlns="http://www.w3.org/2000/svg" xmlns:xlink="http://www.w3.org/1999/xlink" style="isolation:isolate"><defs><clipPath id="_clipPath_0JdvKHqjJm4ecnW0EMYcQUwwwgG7DZnD"><rect x="834.4" y="515.8" width="73.2" height="96.4"/></clipPath><clipPath id="_clipPath_NRtMEqdOypR3rxdWecZqVcJcByYgivxt"><rect x="839" y="519" width="64" height="90"/></clipPath><clipPath id="_clipPath_HoAh5RX3QfG5CfbyONc1Kfr4gmDWqFoB"><rect x="825.167" y="518.153" width="91.667" height="91.694"/></clipPath></defs><symbol id="download" viewBox="834.4 515.8 73.2 96.4"><g clip-path="url(#_clipPath_0JdvKHqjJm4ecnW0EMYcQUwwwgG7DZnD)"><g><path d=" M 853 552.7 C 855.8 552.7 857.9 552.1 859.2 550.9 C 860.6 549.7 861.2 547.8 861.2 545.3 C 861.2 542.7 860.5 540.8 859.2 539.6 C 857.9 538.4 855.8 537.7 852.9 537.7 L 846.2 537.7 L 846.2 558.5 L 850.4 558.5 L 850.4 552.7 L 853 552.7 Z  M 850.4 541.7 L 852.8 541.7 C 854.2 541.7 855.2 542 855.9 542.5 C 856.6 543 856.9 543.9 856.9 545.1 C 856.9 546.3 856.6 547.2 856.1 547.8 C 855.6 548.4 854.6 548.7 853.2 548.7 L 850.4 548.7 L 850.4 541.7 Z "/><path d=" M 877.7 555.6 C 879.5 553.7 880.3 551.2 880.3 547.9 C 880.3 544.7 879.4 542.1 877.6 540.3 C 875.8 538.5 873.2 537.6 869.8 537.6 L 863.1 537.6 L 863.1 558.4 L 869.6 558.4 C 873.2 558.5 875.9 557.5 877.7 555.6 Z  M 874.5 552.8 C 873.5 553.9 872 554.4 870.1 554.4 L 867.4 554.4 L 867.4 541.7 L 869.8 541.7 C 871.9 541.7 873.5 542.3 874.6 543.4 C 875.6 544.5 876.2 546.1 876.2 548.1 C 876.1 550.1 875.5 551.7 874.5 552.8 Z "/><path d=" M 895.6 541.8 L 895.6 537.7 L 882.6 537.7 L 882.6 558.5 L 886.8 558.5 L 886.8 550.3 L 895.1 550.3 L 895.1 546.3 L 886.8 546.3 L 886.8 541.8 L 895.6 541.8 Z "/><path d=" M 901.1 515.8 L 840.7 515.8 C 837.2 515.8 834.4 518.6 834.4 522.1 L 834.4 595.9 C 834.4 599.4 837.2 602.2 840.7 602.2 L 854.6 602.2 L 852.7 600.3 L 850.8 598.4 L 840.8 598.4 C 839.4 598.4 838.3 597.3 838.3 595.9 L 838.3 522.1 C 838.3 520.7 839.4 519.6 840.8 519.6 L 901.3 519.6 C 902.7 519.6 903.8 520.7 903.8 522.1 L 903.8 595.9 C 903.8 597.3 902.7 598.4 901.3 598.4 L 892.7 598.4 L 890.8 600.3 L 888.9 602.2 L 901.3 602.2 C 904.8 602.2 907.6 599.4 907.6 595.9 L 907.6 522.1 C 907.5 518.6 904.6 515.8 901.1 515.8 Z "/><path d=" M 893 590.4 L 879.9 590.3 L 879.9 568.7 L 861.9 568.7 L 861.9 590 L 848.8 589.8 L 871.2 612.2 L 893 590.4 Z "/></g></g></symbol><symbol id="page" viewBox="839 519 64 90"><g clip-path="url(#_clipPath_NRtMEqdOypR3rxdWecZqVcJcByYgivxt)"><path d=" M 903 542.5 C 903 542.4 903 542.3 902.9 542.2 C 902.9 542.2 902.9 542.1 902.9 542.1 C 902.9 542 902.8 541.9 902.8 541.8 C 902.8 541.8 902.8 541.7 902.8 541.7 C 902.7 541.6 902.6 541.5 902.6 541.4 L 880.6 519.4 C 880.5 519.3 880.4 519.2 880.3 519.2 C 880.3 519.2 880.2 519.2 880.2 519.2 C 880.1 519.1 880 519.1 879.9 519.1 C 879.9 519.1 879.8 519.1 879.8 519.1 C 879.7 519.1 879.6 519 879.5 519 C 879.4 519 879.2 519 879.1 519 L 847 519 C 842.6 519 839 522.6 839 527 L 839 601 C 839 605.4 842.6 609 847 609 L 895 609 C 899.4 609 903 605.4 903 601 L 903 542.9 C 903 542.8 903 542.6 903 542.5 Z  M 881 525.7 L 896.2 540.9 L 885 540.9 C 882.8 540.9 881 539.1 881 536.9 L 881 525.7 Z  M 895 604.9 L 847 604.9 C 844.8 604.9 843 603.1 843 600.9 L 843 526.9 C 843 524.7 844.8 522.9 847 522.9 L 877 522.9 L 877 536.9 C 877 541.3 880.6 544.9 885 544.9 L 899 544.9 L 899 600.9 C 899 603.1 897.2 604.9 895 604.9 Z  M 889 584.9 C 889 586 888.1 586.9 887 586.9 L 855 586.9 C 853.9 586.9 853 586 853 584.9 C 853 583.8 853.9 582.9 855 582.9 L 887 582.9 C 888.1 582.9 889 583.8 889 584.9 Z  M 889 574.9 C 889 576 888.1 576.9 887 576.9 L 855 576.9 C 853.9 576.9 853 576 853 574.9 C 853 573.8 853.9 572.9 855 572.9 L 887 572.9 C 888.1 572.9 889 573.8 889 574.9 Z  M 889 564.9 C 889 566 888.1 566.9 887 566.9 L 855 566.9 C 853.9 566.9 853 566 853 564.9 C 853 563.8 853.9 562.9 855 562.9 L 887 562.9 C 888.1 562.9 889 563.8 889 564.9 Z "/></g></symbol><symbol id="slideshow" viewBox="825.167 518.153 91.667 91.694"><g clip-path="url(#_clipPath_HoAh5RX3QfG5CfbyONc1Kfr4gmDWqFoB)"><g><g><path d=" M 833.5 582.736 C 833.5 586.188 836.298 588.986 839.75 588.986 L 868.917 588.986 L 868.917 593.445 C 864.854 594.494 862.204 598.401 862.733 602.564 C 863.262 606.727 866.804 609.847 871 609.847 C 875.196 609.847 878.738 606.727 879.267 602.564 C 879.796 598.401 877.146 594.494 873.083 593.445 L 873.083 588.986 L 902.25 588.986 C 905.702 588.986 908.5 586.188 908.5 582.736 L 908.5 530.653 L 833.5 530.653 L 833.5 582.736 Z  M 837.48 579.417 C 837.48 582.501 839.979 585 843.063 585 L 898.889 585 C 901.972 585 904.471 582.501 904.471 579.417 L 904.496 534.375 L 837.504 534.375 L 837.48 579.417 Z " fill-rule="evenodd"/><path d=" M 875.167 601.486 C 875.167 603.788 873.301 605.653 871 605.653 C 868.699 605.653 866.833 603.788 866.833 601.486 C 866.833 599.185 868.699 597.32 871 597.32 C 873.301 597.32 875.167 599.185 875.167 601.486 Z "/></g><path d=" M 912.667 518.153 L 829.333 518.153 C 827.032 518.153 825.167 520.019 825.167 522.32 C 825.167 524.621 827.032 526.486 829.333 526.486 L 912.667 526.486 C 914.968 526.486 916.833 524.621 916.833 522.32 C 916.833 520.019 914.968 518.153 912.667 518.153 Z "/><g><path d=" M 850.26 562.215 C 851.2 562.794 851.492 564.027 850.913 564.967 C 850.535 565.58 849.879 565.917 849.208 565.917 C 848.85 565.917 848.487 565.821 848.16 565.619 L 842.197 561.942 C 841.607 561.578 841.247 560.934 841.247 560.24 C 841.247 559.546 841.607 558.902 842.197 558.538 L 848.16 554.861 C 849.1 554.28 850.332 554.573 850.912 555.513 C 851.492 556.453 851.199 557.686 850.259 558.265 L 847.057 560.24 L 850.26 562.215 Z "/><path d=" M 883.124 570.739 C 883.124 571.843 882.228 572.739 881.124 572.739 L 862.124 572.739 C 861.02 572.739 860.124 571.843 860.124 570.739 L 860.124 551.739 C 860.124 550.635 861.02 549.739 862.124 549.739 L 881.124 549.739 C 882.228 549.739 883.124 550.635 883.124 551.739 L 883.124 570.739 Z "/><path d=" M 901.05 561.942 L 895.086 565.619 C 894.759 565.821 894.397 565.917 894.039 565.917 C 893.368 565.917 892.712 565.58 892.334 564.967 C 891.754 564.027 892.047 562.794 892.987 562.215 L 896.19 560.24 L 892.987 558.265 C 892.047 557.686 891.754 556.453 892.334 555.513 C 892.914 554.573 894.146 554.28 895.086 554.861 L 901.05 558.538 C 901.641 558.902 902.001 559.546 902.001 560.24 C 902.001 560.934 901.641 561.578 901.05 561.942 Z "/></g></g></g></symbol></svg>