<svg xmlns="http://www.w3.org/2000/svg" xmlns:xlink="http://www.w3.org/1999/xlink" style="isolation:isolate"><defs><clipPath id="_clipPath_cluZ5LPDq3uFySZtla6j7DXEd2cWPkbt"><rect x="782.286" y="417.454" width="177.428" height="293.091"/></clipPath><clipPath id="_clipPath_5E8HyFkMAMR4iZKVBviEonJxe7tzKwcM"><rect x="782.286" y="417.454" width="177.428" height="293.091"/></clipPath></defs><symbol id="next" viewBox="782.286 417.454 177.428 293.091"><g clip-path="url(#_clipPath_cluZ5LPDq3uFySZtla6j7DXEd2cWPkbt)"><g><g><path d=" M 813.515 710.546 C 805.496 710.546 797.785 707.461 791.616 701.601 C 779.587 689.572 779.587 669.832 791.616 657.803 L 885.072 564.039 L 791.308 470.274 C 779.279 458.245 779.279 438.505 791.308 426.476 C 803.337 414.447 823.077 414.447 835.106 426.476 L 950.769 542.14 C 956.629 548 959.714 555.711 959.714 564.039 C 959.714 572.366 956.321 580.077 950.769 585.937 L 835.414 701.601 C 829.246 707.461 821.226 710.546 813.515 710.546 Z "/></g></g></g></symbol><symbol id="previous" viewBox="782.286 417.454 177.428 293.091"><g clip-path="url(#_clipPath_5E8HyFkMAMR4iZKVBviEonJxe7tzKwcM)"><g><g><path d=" M 928.485 417.454 C 936.504 417.454 944.215 420.539 950.384 426.399 C 962.413 438.428 962.413 458.168 950.384 470.197 L 856.928 563.961 L 950.692 657.726 C 962.721 669.755 962.721 689.495 950.692 701.524 C 938.663 713.553 918.923 713.553 906.894 701.524 L 791.231 585.86 C 785.371 580 782.286 572.289 782.286 563.961 C 782.286 555.634 785.679 547.923 791.231 542.063 L 906.586 426.399 C 912.754 420.539 920.774 417.454 928.485 417.454 Z "/></g></g></g></symbol></svg>