<?xml version="1.0" encoding="UTF-8" standalone="no"?><!-- Generator: Gravit.io --><svg xmlns="http://www.w3.org/2000/svg" xmlns:xlink="http://www.w3.org/1999/xlink" style="isolation:isolate" viewBox="834.4 515.8 73.2 96.4" width="73.2pt" height="96.4pt"><defs><clipPath id="_clipPath_0JdvKHqjJm4ecnW0EMYcQUwwwgG7DZnD"><rect x="834.4" y="515.8" width="73.2" height="96.4"/></clipPath></defs><g clip-path="url(#_clipPath_0JdvKHqjJm4ecnW0EMYcQUwwwgG7DZnD)"><g><path d=" M 853 552.7 C 855.8 552.7 857.9 552.1 859.2 550.9 C 860.6 549.7 861.2 547.8 861.2 545.3 C 861.2 542.7 860.5 540.8 859.2 539.6 C 857.9 538.4 855.8 537.7 852.9 537.7 L 846.2 537.7 L 846.2 558.5 L 850.4 558.5 L 850.4 552.7 L 853 552.7 Z  M 850.4 541.7 L 852.8 541.7 C 854.2 541.7 855.2 542 855.9 542.5 C 856.6 543 856.9 543.9 856.9 545.1 C 856.9 546.3 856.6 547.2 856.1 547.8 C 855.6 548.4 854.6 548.7 853.2 548.7 L 850.4 548.7 L 850.4 541.7 Z " fill="rgb(0,0,0)"/><path d=" M 877.7 555.6 C 879.5 553.7 880.3 551.2 880.3 547.9 C 880.3 544.7 879.4 542.1 877.6 540.3 C 875.8 538.5 873.2 537.6 869.8 537.6 L 863.1 537.6 L 863.1 558.4 L 869.6 558.4 C 873.2 558.5 875.9 557.5 877.7 555.6 Z  M 874.5 552.8 C 873.5 553.9 872 554.4 870.1 554.4 L 867.4 554.4 L 867.4 541.7 L 869.8 541.7 C 871.9 541.7 873.5 542.3 874.6 543.4 C 875.6 544.5 876.2 546.1 876.2 548.1 C 876.1 550.1 875.5 551.7 874.5 552.8 Z " fill="rgb(0,0,0)"/><path d=" M 895.6 541.8 L 895.6 537.7 L 882.6 537.7 L 882.6 558.5 L 886.8 558.5 L 886.8 550.3 L 895.1 550.3 L 895.1 546.3 L 886.8 546.3 L 886.8 541.8 L 895.6 541.8 Z " fill="rgb(0,0,0)"/><path d=" M 901.1 515.8 L 840.7 515.8 C 837.2 515.8 834.4 518.6 834.4 522.1 L 834.4 595.9 C 834.4 599.4 837.2 602.2 840.7 602.2 L 854.6 602.2 L 852.7 600.3 L 850.8 598.4 L 840.8 598.4 C 839.4 598.4 838.3 597.3 838.3 595.9 L 838.3 522.1 C 838.3 520.7 839.4 519.6 840.8 519.6 L 901.3 519.6 C 902.7 519.6 903.8 520.7 903.8 522.1 L 903.8 595.9 C 903.8 597.3 902.7 598.4 901.3 598.4 L 892.7 598.4 L 890.8 600.3 L 888.9 602.2 L 901.3 602.2 C 904.8 602.2 907.6 599.4 907.6 595.9 L 907.6 522.1 C 907.5 518.6 904.6 515.8 901.1 515.8 Z " fill="rgb(0,0,0)"/><path d=" M 893 590.4 L 879.9 590.3 L 879.9 568.7 L 861.9 568.7 L 861.9 590 L 848.8 589.8 L 871.2 612.2 L 893 590.4 Z " fill="rgb(0,0,0)"/></g></g></svg>