<?xml version="1.0" encoding="UTF-8" standalone="no"?><!-- Generator: Gravit.io --><svg xmlns="http://www.w3.org/2000/svg" xmlns:xlink="http://www.w3.org/1999/xlink" style="isolation:isolate" viewBox="839 519 64 90" width="64pt" height="90pt"><defs><clipPath id="_clipPath_NRtMEqdOypR3rxdWecZqVcJcByYgivxt"><rect x="839" y="519" width="64" height="90"/></clipPath></defs><g clip-path="url(#_clipPath_NRtMEqdOypR3rxdWecZqVcJcByYgivxt)"><path d=" M 903 542.5 C 903 542.4 903 542.3 902.9 542.2 C 902.9 542.2 902.9 542.1 902.9 542.1 C 902.9 542 902.8 541.9 902.8 541.8 C 902.8 541.8 902.8 541.7 902.8 541.7 C 902.7 541.6 902.6 541.5 902.6 541.4 L 880.6 519.4 C 880.5 519.3 880.4 519.2 880.3 519.2 C 880.3 519.2 880.2 519.2 880.2 519.2 C 880.1 519.1 880 519.1 879.9 519.1 C 879.9 519.1 879.8 519.1 879.8 519.1 C 879.7 519.1 879.6 519 879.5 519 C 879.4 519 879.2 519 879.1 519 L 847 519 C 842.6 519 839 522.6 839 527 L 839 601 C 839 605.4 842.6 609 847 609 L 895 609 C 899.4 609 903 605.4 903 601 L 903 542.9 C 903 542.8 903 542.6 903 542.5 Z  M 881 525.7 L 896.2 540.9 L 885 540.9 C 882.8 540.9 881 539.1 881 536.9 L 881 525.7 Z  M 895 604.9 L 847 604.9 C 844.8 604.9 843 603.1 843 600.9 L 843 526.9 C 843 524.7 844.8 522.9 847 522.9 L 877 522.9 L 877 536.9 C 877 541.3 880.6 544.9 885 544.9 L 899 544.9 L 899 600.9 C 899 603.1 897.2 604.9 895 604.9 Z  M 889 584.9 C 889 586 888.1 586.9 887 586.9 L 855 586.9 C 853.9 586.9 853 586 853 584.9 C 853 583.8 853.9 582.9 855 582.9 L 887 582.9 C 888.1 582.9 889 583.8 889 584.9 Z  M 889 574.9 C 889 576 888.1 576.9 887 576.9 L 855 576.9 C 853.9 576.9 853 576 853 574.9 C 853 573.8 853.9 572.9 855 572.9 L 887 572.9 C 888.1 572.9 889 573.8 889 574.9 Z  M 889 564.9 C 889 566 888.1 566.9 887 566.9 L 855 566.9 C 853.9 566.9 853 566 853 564.9 C 853 563.8 853.9 562.9 855 562.9 L 887 562.9 C 888.1 562.9 889 563.8 889 564.9 Z " fill="rgb(0,0,0)"/></g></svg>